<svg xmlns="http://www.w3.org/2000/svg" version="1.1" xmlns:xlink="http://www.w3.org/1999/xlink" xmlns:svgjs="http://svgjs.dev/svgjs" width="2000" height="313" viewBox="0 0 2000 313"><g transform="matrix(1,0,0,1,-1.2121212121212466,-0.24563620390910046)"><svg viewBox="0 0 396 62" data-background-color="#33413d" preserveAspectRatio="xMidYMid meet" height="313" width="2000" xmlns="http://www.w3.org/2000/svg" xmlns:xlink="http://www.w3.org/1999/xlink"><defs></defs><g id="tight-bounds" transform="matrix(1,0,0,1,0.2400000000000091,0.048656372659309)"><svg viewBox="0 0 395.52 61.902280977105285" height="61.902280977105285" width="395.52"><g><svg viewBox="0 0 487.9444285791607 76.36749878418357" height="61.902280977105285" width="395.52"><g transform="matrix(1,0,0,1,92.42442857916068,21.17976572266212)"><svg viewBox="0 0 395.52 34.00796733885933" height="34.00796733885933" width="395.52"><g><svg viewBox="0 0 395.52 34.00796733885933" height="34.00796733885933" width="395.52"><g><svg viewBox="0 0 395.52 34.00796733885933" height="34.00796733885933" width="395.52"><g transform="matrix(1,0,0,1,0,0)"><svg width="395.52" viewBox="2.4 -34.35 404.11 34.75" height="34.00796733885933" data-palette-color="#eeeeee"><g class="undefined-text-0" data-fill-palette-color="primary" id="text-0"><path d="M28-5.95L28-1.7Q24.9 0.4 19.5 0.4L19.5 0.4Q11.9 0.4 7.15-4.28 2.4-8.95 2.4-17L2.4-17Q2.4-24.6 7.23-29.38 12.05-34.15 19.35-34.15L19.35-34.15Q24.6-34.15 27.9-32.35L27.9-32.35 27.9-28.2Q25.7-29.35 23.95-29.85 22.2-30.35 19.35-30.35L19.35-30.35Q13.9-30.35 10.28-26.65 6.65-22.95 6.65-17L6.65-17Q6.65-10.8 10.25-7.1 13.85-3.4 19.8-3.4L19.8-3.4Q24.6-3.4 28-5.95L28-5.95ZM41-14.2L41-14.2 40.35-12.3 52.3-12.3 51.65-14.25 46.4-30.45Q45.8-28.3 41-14.2ZM39.2-8.85L36.2 0 31.85 0 43.6-33.7 49.2-33.7 60.75 0 56.4 0 53.45-8.85 39.2-8.85ZM75.59-12.4L75.59-12.4 70.4-12.4 70.4 0 66.34 0 66.34-33.7 75.2-33.7Q81.05-33.7 84.42-30.68 87.8-27.65 87.8-22.85L87.8-22.85Q87.8-18.35 84.45-15.38 81.09-12.4 75.59-12.4ZM75.25-30.25L75.25-30.25 70.4-30.25 70.4-15.85 75.59-15.85Q79.4-15.85 81.55-17.82 83.7-19.8 83.7-22.85L83.7-22.85Q83.7-26.25 81.5-28.25 79.3-30.25 75.25-30.25ZM97.94-33.7L97.94 0 93.89 0 93.89-33.7 97.94-33.7ZM125.24-33.7L125.24-30.15 116.14-30.15 116.14 0 112.09 0 112.09-30.15 102.99-30.15 102.99-33.7 125.24-33.7ZM158.84-17L158.84-17Q158.84-9.05 154.76-4.33 150.69 0.4 143.74 0.4L143.74 0.4Q136.89 0.4 132.74-4.35 128.59-9.1 128.59-17L128.59-17Q128.59-24.95 132.66-29.65 136.74-34.35 143.69-34.35L143.69-34.35Q150.79-34.35 154.81-29.68 158.84-25 158.84-17ZM132.84-17L132.84-17Q132.84-10.75 135.81-7.1 138.79-3.45 143.74-3.45L143.74-3.45Q148.89-3.45 151.71-7.05 154.54-10.65 154.54-17 154.54-23.35 151.69-26.95 148.84-30.55 143.69-30.55L143.69-30.55Q138.59-30.55 135.71-26.93 132.84-23.3 132.84-17ZM183.44-3.65L183.44 0 165.03 0 165.03-33.7 169.09-33.7 169.09-3.65 183.44-3.65ZM208.18-33.7L208.18-30.15 199.08-30.15 199.08 0 195.03 0 195.03-30.15 185.93-30.15 185.93-33.7 208.18-33.7ZM221.68-30.2L221.68-30.2 217.03-30.2 217.03-16.75 222.13-16.75Q225.58-16.75 227.41-18.63 229.23-20.5 229.23-23.45L229.23-23.45Q229.23-30.2 221.68-30.2ZM222.28-13.3L221.88-13.3 217.03-13.3 217.03 0 212.98 0 212.98-33.7 221.43-33.7Q227.28-33.7 230.31-30.95 233.33-28.2 233.33-23.35L233.33-23.35Q233.23-19.85 231.48-17.4 229.73-14.95 226.53-13.95L226.53-13.95 235.38 0 230.53 0 222.28-13.3ZM247.43-14.2L247.43-14.2 246.78-12.3 258.73-12.3 258.08-14.25 252.83-30.45Q252.23-28.3 247.43-14.2ZM245.63-8.85L242.63 0 238.28 0 250.03-33.7 255.63-33.7 267.18 0 262.83 0 259.88-8.85 245.63-8.85ZM282.98 0L282.98 0 272.78 0 272.78-33.7 282.78-33.7Q290.23-33.7 295-29.08 299.78-24.45 299.78-17.1L299.78-17.1Q299.78-9.8 295.35-4.9 290.93 0 282.98 0ZM282.73-30.1L282.73-30.1 276.88-30.1 276.88-3.55 282.93-3.55Q289.18-3.55 292.38-7.43 295.57-11.3 295.57-17.1L295.57-17.1Q295.57-22.6 292-26.35 288.43-30.1 282.73-30.1ZM324.62-3.55L324.62 0 305.82 0 305.82-33.7 324.37-33.7 324.37-30.15 309.87-30.15 309.87-18.6 322.67-18.6 322.67-15.05 309.87-15.05 309.87-3.55 324.62-3.55ZM350.37-8.95L350.37-8.95Q350.37-4.5 347.32-2.08 344.27 0.35 339.47 0.35L339.47 0.35Q334.17 0.35 330.47-1.8L330.47-1.8 330.47-6.15Q334.12-3.4 339.37-3.4L339.37-3.4Q342.52-3.4 344.32-4.8 346.12-6.2 346.12-8.85L346.12-8.85Q346.12-9.95 345.7-10.83 345.27-11.7 344.3-12.43 343.32-13.15 342.45-13.63 341.57-14.1 340.07-14.8L340.07-14.8Q339.77-14.95 339.17-15.2L339.17-15.2Q337.02-16.15 335.9-16.75 334.77-17.35 333.25-18.53 331.72-19.7 331.02-21.25 330.32-22.8 330.32-24.85L330.32-24.85Q330.32-29.15 333.4-31.58 336.47-34 341.12-34L341.12-34Q345.47-34 348.52-32.45L348.52-32.45 348.52-28.2Q345.47-30.2 341.22-30.2L341.22-30.2Q338.17-30.2 336.37-28.78 334.57-27.35 334.57-25.05L334.57-25.05Q334.57-23.85 335.05-22.9 335.52-21.95 336.72-21.13 337.92-20.3 338.77-19.88 339.62-19.45 341.42-18.65L341.42-18.65Q343.12-17.9 344.02-17.48 344.92-17.05 346.35-16.13 347.77-15.2 348.5-14.33 349.22-13.45 349.8-12.03 350.37-10.6 350.37-8.95ZM359.47-4.65Q360.32-3.8 360.32-2.55 360.32-1.3 359.47-0.45 358.62 0.4 357.37 0.4 356.12 0.4 355.27-0.45 354.42-1.3 354.42-2.55 354.42-3.8 355.27-4.65 356.12-5.5 357.37-5.5 358.62-5.5 359.47-4.65ZM369.72-33.7L369.72 0 365.67 0 365.67-33.7 369.72-33.7ZM406.51-17L406.51-17Q406.51-9.05 402.44-4.33 398.36 0.4 391.41 0.4L391.41 0.4Q384.56 0.4 380.41-4.35 376.26-9.1 376.26-17L376.26-17Q376.26-24.95 380.34-29.65 384.41-34.35 391.36-34.35L391.36-34.35Q398.46-34.35 402.49-29.68 406.51-25 406.51-17ZM380.51-17L380.51-17Q380.51-10.75 383.49-7.1 386.46-3.45 391.41-3.45L391.41-3.45Q396.56-3.45 399.39-7.05 402.21-10.65 402.21-17 402.21-23.35 399.36-26.95 396.51-30.55 391.36-30.55L391.36-30.55Q386.26-30.55 383.39-26.93 380.51-23.3 380.51-17Z" fill="#eeeeee" data-fill-palette-color="primary"></path></g></svg></g></svg></g></svg></g></svg></g><g><svg viewBox="0 0 76.36749878418357 76.36749878418357" height="76.36749878418357" width="76.36749878418357"><g><svg></svg></g><g id="icon-0"><svg viewBox="0 0 76.36749878418357 76.36749878418357" height="76.36749878418357" width="76.36749878418357"><g><path d="M0 38.184c0-21.088 17.095-38.184 38.184-38.184 21.088 0 38.184 17.095 38.184 38.184 0 21.088-17.095 38.184-38.184 38.184-21.088 0-38.184-17.095-38.184-38.184zM38.184 73.301c19.395 0 35.117-15.722 35.117-35.117 0-19.395-15.722-35.117-35.117-35.117-19.395 0-35.117 15.722-35.117 35.117 0 19.395 15.722 35.117 35.117 35.117z" data-fill-palette-color="accent" fill="#eeeeee" stroke="transparent"></path></g><g transform="matrix(1,0,0,1,17.252152404221995,21.99432198847383)"><svg viewBox="0 0 41.86319397573958 32.37885480723591" height="32.37885480723591" width="41.86319397573958"><g><svg xmlns="http://www.w3.org/2000/svg" xmlns:xlink="http://www.w3.org/1999/xlink" version="1.1" x="0" y="0" viewBox="0 5.429 99 76.571" enable-background="new 0 0 100 100" xml:space="preserve" height="32.37885480723591" width="41.86319397573958" class="icon-li-0" data-fill-palette-color="accent" id="li-0"><path d="M62.759 32c0.001 0 0.006 0 0.006 0 0-7-6.129-13.465-13.689-13.465-7.561 0-13.69 5.905-13.69 13.465 0 0.075 0.004 0 0.005 0H62.759z" fill="#eeeeee" data-fill-palette-color="accent"></path><rect x="36" y="40" width="25" height="1" fill="#eeeeee" data-fill-palette-color="accent"></rect><rect x="36" y="35" width="25" height="0" fill="#eeeeee" data-fill-palette-color="accent"></rect><g fill="#eeeeee" data-fill-palette-color="accent"><rect x="36" y="35" width="4" height="4" fill="#eeeeee" data-fill-palette-color="accent"></rect><rect x="43" y="35" width="4" height="4" fill="#eeeeee" data-fill-palette-color="accent"></rect><rect x="50" y="35" width="4" height="4" fill="#eeeeee" data-fill-palette-color="accent"></rect><rect x="57" y="35" width="4" height="4" fill="#eeeeee" data-fill-palette-color="accent"></rect></g><rect x="46" y="13" width="1" height="5" fill="#eeeeee" data-fill-palette-color="accent"></rect><rect x="49" y="13" width="0" height="5" fill="#eeeeee" data-fill-palette-color="accent"></rect><rect x="51" y="13" width="1" height="5" fill="#eeeeee" data-fill-palette-color="accent"></rect><g fill="#eeeeee" data-fill-palette-color="accent"><rect x="30" y="44" width="4" height="9" fill="#eeeeee" data-fill-palette-color="accent"></rect><rect x="37" y="44" width="4" height="9" fill="#eeeeee" data-fill-palette-color="accent"></rect><rect x="44" y="44" width="4" height="9" fill="#eeeeee" data-fill-palette-color="accent"></rect><rect x="51" y="44" width="4" height="9" fill="#eeeeee" data-fill-palette-color="accent"></rect><g fill="#eeeeee" data-fill-palette-color="accent"><rect x="58" y="44" width="4" height="9" fill="#eeeeee" data-fill-palette-color="accent"></rect><rect x="65" y="44" width="4" height="9" fill="#eeeeee" data-fill-palette-color="accent"></rect></g></g><path d="M63.113 33H34.67c-0.308 0-0.557 0.34-0.557 0.5s0.25 0.5 0.557 0.5h28.443c0.308 0 0.558-0.34 0.558-0.5S63.421 33 63.113 33z" fill="#eeeeee" data-fill-palette-color="accent"></path><path d="M68.818 42H31.09c-0.409 0-0.739 0.34-0.739 0.5S30.681 43 31.09 43h37.729c0.408 0 0.739-0.34 0.739-0.5S69.227 42 68.818 42z" fill="#eeeeee" data-fill-palette-color="accent"></path><path d="M53.797 18h-9.231c-0.099 0-0.18 0.18-0.18 0.5 0 0.32 0.081 0.5 0.18 0.5h9.231c0.102 0 0.181-0.18 0.181-0.5C53.978 18.18 53.898 18 53.797 18z" fill="#eeeeee" data-fill-palette-color="accent"></path><path d="M53.219 17h-8.154c-0.088 0-0.16 0.18-0.16 0.5s0.072 0.5 0.16 0.5h8.154c0.088 0 0.16-0.18 0.16-0.5S53.307 17 53.219 17z" fill="#eeeeee" data-fill-palette-color="accent"></path><path d="M52.642 12h-7c-0.076 0-0.138 0.18-0.138 0.5s0.062 0.5 0.138 0.5h7c0.076 0 0.137-0.18 0.137-0.5S52.718 12 52.642 12z" fill="#eeeeee" data-fill-palette-color="accent"></path><path d="M70.188 54H28.811C28.363 54 28 53.949 28 55s0.363 1 0.811 1h41.377C70.636 56 71 56.051 71 55S70.636 54 70.188 54z" fill="#eeeeee" data-fill-palette-color="accent"></path><polygon points="48.797,12 49.102,5.429 49.406,12 " fill="#eeeeee" data-fill-palette-color="accent"></polygon><rect x="30" y="56" width="2" height="14" fill="#eeeeee" data-fill-palette-color="accent"></rect><rect x="33" y="56" width="2" height="14" fill="#eeeeee" data-fill-palette-color="accent"></rect><rect x="38" y="56" width="2" height="14" fill="#eeeeee" data-fill-palette-color="accent"></rect><rect x="41" y="56" width="2" height="14" fill="#eeeeee" data-fill-palette-color="accent"></rect><rect x="56" y="56" width="2" height="14" fill="#eeeeee" data-fill-palette-color="accent"></rect><rect x="46" y="56" width="2" height="14" fill="#eeeeee" data-fill-palette-color="accent"></rect><rect x="51" y="56" width="2" height="14" fill="#eeeeee" data-fill-palette-color="accent"></rect><rect x="59" y="56" width="2" height="14" fill="#eeeeee" data-fill-palette-color="accent"></rect><rect x="64" y="56" width="2" height="14" fill="#eeeeee" data-fill-palette-color="accent"></rect><rect x="67" y="56" width="2" height="14" fill="#eeeeee" data-fill-palette-color="accent"></rect><rect x="29" y="70" width="7" height="3" fill="#eeeeee" data-fill-palette-color="accent"></rect><rect x="37" y="70" width="7" height="3" fill="#eeeeee" data-fill-palette-color="accent"></rect><rect x="45" y="70" width="4" height="3" fill="#eeeeee" data-fill-palette-color="accent"></rect><rect x="50" y="70" width="4" height="3" fill="#eeeeee" data-fill-palette-color="accent"></rect><rect x="55" y="70" width="7" height="3" fill="#eeeeee" data-fill-palette-color="accent"></rect><rect x="63" y="70" width="7" height="3" fill="#eeeeee" data-fill-palette-color="accent"></rect><rect x="29" y="73" width="41" height="9" fill="#eeeeee" data-fill-palette-color="accent"></rect><rect x="17" y="53" width="10" height="27" fill="#eeeeee" data-fill-palette-color="accent"></rect><rect y="58" width="15" height="21" fill="#eeeeee" data-fill-palette-color="accent"></rect><rect x="84" y="58" width="15" height="21" fill="#eeeeee" data-fill-palette-color="accent"></rect><rect x="72" y="53" width="10" height="27" fill="#eeeeee" data-fill-palette-color="accent"></rect></svg></g></svg></g></svg></g></svg></g></svg></g></svg><rect width="395.52" height="61.902280977105285" fill="none" stroke="none" visibility="hidden"></rect></g></svg></g></svg>